<?xml version="1.0" encoding="iso-8859-1"?>
<!-- Generator: Adobe Illustrator 19.0.0, SVG Export Plug-In . SVG Version: 6.00 Build 0)  -->
<svg xmlns="http://www.w3.org/2000/svg" xmlns:xlink="http://www.w3.org/1999/xlink" version="1.1" id="Capa_1" x="0px" y="0px" viewBox="0 0 512 512" style="enable-background:new 0 0 512 512;" xml:space="preserve" width="512px" height="512px">
<g>
	<g>
		<path d="M224,106.667H96c-52.993,0.065-95.935,43.007-96,96v256C0.035,488.107,23.893,511.965,53.333,512h213.333    c29.441-0.035,53.298-23.893,53.333-53.333v-256C319.935,149.674,276.993,106.731,224,106.667z M298.667,458.667    c0,17.673-14.327,32-32,32H53.333c-17.673,0-32-14.327-32-32v-256C21.38,161.449,54.782,128.047,96,128h128    c41.218,0.047,74.62,33.449,74.667,74.667V458.667z" fill="#FFFFFF"/>
	</g>
</g>
<g>
	<g>
		<path d="M224,0H96C78.327,0,64,14.327,64,32v42.667c0,5.891,4.776,10.667,10.667,10.667h170.667    c5.891,0,10.667-4.776,10.667-10.667V32C256,14.327,241.673,0,224,0z M234.667,64H85.333V32c0-5.891,4.776-10.667,10.667-10.667    h128c5.891,0,10.667,4.776,10.667,10.667V64z" fill="#FFFFFF"/>
	</g>
</g>
<g>
	<g>
		<rect x="85.333" y="74.667" width="21.333" height="42.667" fill="#FFFFFF"/>
	</g>
</g>
<g>
	<g>
		<rect x="213.333" y="74.667" width="21.333" height="42.667" fill="#FFFFFF"/>
	</g>
</g>
<g>
	<g>
		<path d="M138.667,202.667h-128V224h128c5.891,0,10.667,4.776,10.667,10.667v170.667c0,5.891-4.776,10.667-10.667,10.667h-128    v21.333h128c17.673,0,32-14.327,32-32V234.667C170.667,216.994,156.34,202.667,138.667,202.667z" fill="#FFFFFF"/>
	</g>
</g>
<g>
	<g>
		<path d="M480,416H341.333v21.333H480c5.891,0,10.667,4.776,10.667,10.667v32c0,5.891-4.776,10.667-10.667,10.667H330.667V512H480    c17.673,0,32-14.327,32-32v-32C512,430.327,497.673,416,480,416z" fill="#FFFFFF"/>
	</g>
</g>
<g>
	<g>
		<path d="M437.333,341.333h-96v21.333h96c5.891,0,10.667,4.776,10.667,10.667v32c0,5.891-4.776,10.667-10.667,10.667h-96v21.333h96    c17.673,0,32-14.327,32-32v-32C469.333,355.66,455.006,341.333,437.333,341.333z" fill="#FFFFFF"/>
	</g>
</g>
<g>
	<g>
		<path d="M480,266.667H341.333V288H480c5.891,0,10.667,4.776,10.667,10.667v32c0,5.891-4.776,10.667-10.667,10.667H341.333v21.333    H480c17.673,0,32-14.327,32-32v-32C512,280.994,497.673,266.667,480,266.667z" fill="#FFFFFF"/>
	</g>
</g>
<g>
	<g>
		<path d="M458.667,192H341.333v21.333h117.333c5.891,0,10.667,4.776,10.667,10.667v32c0,5.891-4.776,10.667-10.667,10.667H341.333    V288h117.333c17.673,0,32-14.327,32-32v-32C490.667,206.327,476.34,192,458.667,192z" fill="#FFFFFF"/>
	</g>
</g>
<g>
	<g>
		<rect x="224" y="352" width="21.333" height="85.333" fill="#FFFFFF"/>
	</g>
</g>
<g>
	<g>
		<rect x="192" y="384" width="85.333" height="21.333" fill="#FFFFFF"/>
	</g>
</g>
<g>
	<g>
		<rect x="202.667" y="202.667" width="64" height="21.333" fill="#FFFFFF"/>
	</g>
</g>
<g>
	<g>
		<rect x="202.667" y="245.333" width="64" height="21.333" fill="#FFFFFF"/>
	</g>
</g>
<g>
	<g>
		<rect x="202.667" y="288" width="64" height="21.333" fill="#FFFFFF"/>
	</g>
</g>
<g>
</g>
<g>
</g>
<g>
</g>
<g>
</g>
<g>
</g>
<g>
</g>
<g>
</g>
<g>
</g>
<g>
</g>
<g>
</g>
<g>
</g>
<g>
</g>
<g>
</g>
<g>
</g>
<g>
</g>
</svg>
