<?xml version="1.0" encoding="iso-8859-1"?>
<!-- Generator: Adobe Illustrator 19.0.0, SVG Export Plug-In . SVG Version: 6.00 Build 0)  -->
<svg xmlns="http://www.w3.org/2000/svg" xmlns:xlink="http://www.w3.org/1999/xlink" version="1.1" id="Capa_1" x="0px" y="0px" viewBox="0 0 480.238 480.238" style="enable-background:new 0 0 480.238 480.238;" xml:space="preserve" width="512px" height="512px">
<g>
	<g>
		<path d="M479.024,152.358c-8.699-56.775-61.777-95.748-118.552-87.049c-10.569-26.247-31.377-47.055-57.624-57.624    c-53.28-21.455-113.865,4.344-135.32,57.624c-1.596-0.244-3.197-0.451-4.802-0.62c-57.081-6.024-108.237,35.366-114.261,92.447    c-6.024,57.081,35.366,108.237,92.447,114.261c13.602,43.279,53.722,72.72,99.088,72.712    c47.586,0.245,89.171-32.08,100.672-78.256c11.317,4.147,23.276,6.264,35.328,6.256c5.348,0.011,10.689-0.39,15.975-1.2    C448.75,262.21,487.723,209.133,479.024,152.358z M376,256.109c-13.093,0.005-26.019-2.943-37.816-8.624    c-0.706-0.337-1.458-0.568-2.232-0.687c-4.367-0.67-8.45,2.328-9.12,6.695c-5.346,34.834-30.986,63.104-65.133,71.815    c-47.024,11.997-94.87-16.399-106.867-63.423c-0.865-3.398-3.842-5.837-7.344-6.016c-46.811-2.364-83.541-41.029-83.5-87.9    c0.042-48.566,39.446-87.902,88.012-87.86c6.397,0.018,12.772,0.729,19.016,2.12c4.019,0.885,8.054-1.423,9.328-5.336    c8.701-26.781,29.697-47.778,56.478-56.478c46.202-15.01,95.824,10.276,110.834,56.478c1.274,3.913,5.309,6.221,9.328,5.336    c6.362-1.422,12.862-2.133,19.382-2.12c48.601,0.101,87.918,39.582,87.817,88.183C464.082,216.893,424.601,256.21,376,256.109z" fill="#FFFFFF"/>
	</g>
</g>
<g>
	<g>
		<path d="M112,328.109c-22.091,0-40,17.909-40,40c0,22.091,17.909,40,40,40c22.08-0.026,39.974-17.92,40-40    C152,346.017,134.091,328.109,112,328.109z M112,392.109c-13.255,0-24-10.745-24-24s10.745-24,24-24s24,10.745,24,24    S125.255,392.109,112,392.109z" fill="#FFFFFF"/>
	</g>
</g>
<g>
	<g>
		<path d="M32,416.109c-17.673,0-32,14.327-32,32c0,17.673,14.327,32,32,32s32-14.327,32-32C64,430.436,49.673,416.109,32,416.109z     M32,464.109c-8.837,0-16-7.163-16-16s7.163-16,16-16s16,7.163,16,16S40.837,464.109,32,464.109z" fill="#FFFFFF"/>
	</g>
</g>
<g>
	<g>
		<path d="M256,192.109h-28.688l34.344-34.344c1.499-1.5,2.342-3.534,2.342-5.654c0.001-4.418-3.58-8.001-7.998-8.002h-48    c-4.418,0-8,3.582-8,8s3.582,8,8,8h28.688l-34.344,34.344c-1.499,1.5-2.342,3.534-2.342,5.654    c-0.001,4.418,3.58,8.001,7.998,8.002h48c4.418,0,8-3.582,8-8S260.418,192.109,256,192.109z" fill="#FFFFFF"/>
	</g>
</g>
<g>
	<g>
		<path d="M168,208.109h-12.688l18.344-18.344c1.499-1.5,2.342-3.534,2.342-5.654c0.001-4.418-3.58-8.001-7.998-8.002h-32    c-4.418,0-8,3.582-8,8s3.582,8,8,8h12.688l-18.344,18.344c-1.499,1.5-2.342,3.534-2.342,5.654    c-0.001,4.418,3.58,8.001,7.998,8.002h32c4.418,0,8-3.582,8-8S172.418,208.109,168,208.109z" fill="#FFFFFF"/>
	</g>
</g>
<g>
	<g>
		<path d="M368,176.109h-60.688l66.344-66.344c1.499-1.5,2.342-3.534,2.342-5.654c0.001-4.418-3.58-8.001-7.998-8.002h-80    c-4.418,0-8,3.582-8,8s3.582,8,8,8h60.688l-66.344,66.344c-1.499,1.5-2.342,3.534-2.342,5.654    c-0.001,4.418,3.58,8.001,7.998,8.002h80c4.418,0,8-3.582,8-8S372.418,176.109,368,176.109z" fill="#FFFFFF"/>
	</g>
</g>
<g>
</g>
<g>
</g>
<g>
</g>
<g>
</g>
<g>
</g>
<g>
</g>
<g>
</g>
<g>
</g>
<g>
</g>
<g>
</g>
<g>
</g>
<g>
</g>
<g>
</g>
<g>
</g>
<g>
</g>
</svg>
